<svg width="137" height="46" viewBox="0 0 137 46" fill="none" xmlns="http://www.w3.org/2000/svg">
<path d="M29.2149 20.6872C30.6063 21.0964 31.7726 21.6898 32.7139 22.4674C33.6961 23.245 34.4941 24.1248 35.1079 25.107C35.7218 26.0483 36.1924 27.0714 36.5198 28.1763C36.8472 29.2813 37.0109 30.509 37.0109 31.8595C37.0109 36.443 35.6195 39.7579 32.8366 41.8041C30.0538 43.8094 26.2069 44.812 21.296 44.812H0.363281V1.84159H19.4544C21.828 1.84159 23.9356 2.06667 25.7772 2.51684C27.6188 2.92608 29.1739 3.58087 30.4426 4.4812C31.7522 5.38153 32.7343 6.52741 33.3891 7.91884C34.0848 9.26934 34.4327 10.8858 34.4327 12.7684C34.4327 13.2185 34.3304 13.7505 34.1258 14.3644C33.9211 14.9783 33.5937 15.6126 33.1436 16.2674C32.7343 16.9222 32.1819 17.5565 31.4862 18.1704C30.8314 18.7842 30.0333 19.2958 29.0921 19.705C28.6419 19.9096 28.1099 20.0733 27.496 20.1961C26.8822 20.278 26.3297 20.3393 25.8386 20.3803V20.503C26.2069 20.4621 26.5752 20.4416 26.9436 20.4416C27.1482 20.4416 27.4551 20.4621 27.8644 20.503C28.2736 20.503 28.7238 20.5644 29.2149 20.6872ZM7.72964 8.5327V20.1961H21.9713C24.2221 20.1961 25.8181 19.705 26.7594 18.7228C27.7416 17.6997 28.2327 16.2674 28.2327 14.4258C28.2327 13.3208 28.0076 12.4 27.5574 11.6634C27.1073 10.9268 26.4934 10.3334 25.7158 9.8832C24.9792 9.39211 24.1198 9.04425 23.1376 8.83963C22.1554 8.63501 21.1323 8.5327 20.0683 8.5327H7.72964ZM21.8485 37.9981C22.9535 37.9981 23.997 37.8549 24.9792 37.5684C25.9614 37.282 26.8208 36.8727 27.5574 36.3407C28.2941 35.8087 28.867 35.1334 29.2762 34.315C29.7264 33.4965 29.9515 32.5348 29.9515 31.4298C29.9515 29.6291 29.3376 28.2786 28.1099 27.3783C26.8822 26.478 25.1838 26.0278 23.0148 26.0278H7.72964V37.9981H21.8485Z" fill="#8367F4"/>
<path d="M75.5141 29.4654C75.5141 29.9156 75.5141 30.2225 75.5141 30.3862C75.5141 30.509 75.4936 30.775 75.4527 31.1843H47.7674C47.9311 32.5348 48.2994 33.7216 48.8724 34.7447C49.4862 35.7678 50.2433 36.6272 51.1437 37.3229C52.0849 38.0186 53.1899 38.5506 54.4585 38.9189C55.7681 39.2463 57.1595 39.41 58.6328 39.41C59.8196 39.41 60.9041 39.3282 61.8863 39.1645C62.9094 38.9599 63.8302 38.6529 64.6487 38.2437C65.4672 37.7935 66.2243 37.2206 66.92 36.5249C67.6157 35.8292 68.1682 34.9493 68.5774 33.8853L75.3913 34.4991C74.9002 36.5044 74.0817 38.2028 72.9358 39.5942C71.7899 40.9856 70.4599 42.0906 68.9457 42.909C67.4724 43.6866 65.8355 44.2595 64.0348 44.6279C62.2751 44.9962 60.413 45.1803 58.4487 45.1803C56.0341 45.1803 53.7628 44.8734 51.6348 44.2595C49.5067 43.6048 47.6242 42.6226 45.9872 41.313C44.3503 40.0034 43.0611 38.3665 42.1199 36.4021C41.1786 34.4377 40.708 32.1255 40.708 29.4654C40.708 26.8054 41.1786 24.4931 42.1199 22.5288C43.0611 20.5644 44.3503 18.9275 45.9872 17.6179C47.6242 16.3083 49.5067 15.3466 51.6348 14.7327C53.7628 14.0779 56.0341 13.7505 58.4487 13.7505C60.8223 13.7505 63.0526 14.0779 65.1398 14.7327C67.2269 15.3875 69.048 16.3697 70.6031 17.6793C72.1583 18.9479 73.3655 20.5644 74.2249 22.5288C75.0843 24.4931 75.5141 26.8054 75.5141 29.4654ZM58.6328 19.2139C57.2414 19.2139 55.8295 19.439 54.3972 19.8892C53.0057 20.3393 51.7985 21.0555 50.7754 22.0377C49.7932 23.0199 49.0361 24.1862 48.5041 25.5367C47.9721 26.8872 47.706 28.34 47.706 29.8951C47.706 30.3044 47.7265 30.7341 47.7674 31.1843C47.8493 30.1202 48.013 29.3631 48.2585 28.913C48.545 28.4219 48.8928 27.9922 49.3021 27.6238C49.7523 27.2555 50.3047 27.01 50.9595 26.8872C51.6552 26.7644 52.3714 26.7031 53.108 26.7031H68.6388C68.3114 25.3935 67.8612 24.2885 67.2883 23.3882C66.7563 22.4879 66.081 21.7308 65.2625 21.1169C64.4441 20.503 63.4619 20.0529 62.316 19.7664C61.1701 19.439 59.9424 19.2548 58.6328 19.2139Z" fill="#8367F4"/>
<path d="M79.4941 0H86.8605V44.812H79.4941V0Z" fill="#8367F4"/>
<path d="M90.5244 0H97.8908V44.812H90.5244V0Z" fill="#8367F4"/>
<path d="M117.577 13.9347C119.582 13.9347 121.526 14.1393 123.408 14.5486C125.332 14.9578 127.03 15.6331 128.503 16.5743C129.977 17.4746 131.163 18.7024 132.064 20.2575C132.964 21.7717 133.414 23.6747 133.414 25.9664V37.0773C133.414 37.8549 133.558 38.3869 133.844 38.6734C134.171 38.9189 134.683 39.0417 135.379 39.0417H136.361V44.812H131.695C130.877 44.812 130.12 44.6892 129.424 44.4437C128.729 44.1572 128.135 43.7889 127.644 43.3387C127.153 42.8477 126.764 42.2952 126.478 41.6813C126.191 41.0675 126.048 40.3922 126.048 39.6556V37.1387C125.598 39.1849 124.677 40.781 123.286 41.9269C121.935 43.0727 120.482 43.8912 118.927 44.3823C117.372 44.8325 115.756 45.0576 114.078 45.0576C113.668 45.0576 112.809 45.0166 111.499 44.9348C110.19 44.8529 108.737 44.4437 107.141 43.7071C105.545 42.9704 104.215 41.9678 103.151 40.6991C102.087 39.3896 101.555 37.8549 101.555 36.0952C101.555 33.8443 102.148 32.1255 103.335 30.9387C104.563 29.7519 106.097 28.8925 107.939 28.3605C109.781 27.8285 111.745 27.5215 113.832 27.4397C115.96 27.3578 117.924 27.2965 119.725 27.2555C121.526 27.1737 123.02 27.0304 124.206 26.8258C125.434 26.5803 126.048 26.0483 126.048 25.2298C125.966 23.1836 125.209 21.7308 123.777 20.8714C122.344 20.0119 120.298 19.5822 117.638 19.5822C116.533 19.5822 115.469 19.6641 114.446 19.8278C113.423 19.9915 112.522 20.278 111.745 20.6872C111.008 21.0555 110.394 21.5875 109.903 22.2832C109.412 22.9789 109.105 23.8793 108.983 24.9842L102.23 24.3704C102.394 22.4879 102.946 20.8918 103.887 19.5822C104.87 18.2317 106.077 17.1472 107.509 16.3288C108.983 15.4694 110.579 14.8555 112.297 14.4872C114.057 14.1189 115.817 13.9347 117.577 13.9347ZM109.167 35.911C109.167 37.016 109.576 37.9163 110.394 38.612C111.254 39.2668 112.154 39.6965 113.095 39.9011C114.078 40.0648 114.957 40.1467 115.735 40.1467C116.349 40.1467 117.167 40.0853 118.19 39.9625C119.255 39.7988 120.4 39.4714 121.628 38.9803C122.897 38.4483 123.94 37.7731 124.759 36.9546C125.618 36.0952 126.048 35.0925 126.048 33.9466V30.2021C125.311 30.7341 124.37 31.0819 123.224 31.2456C122.119 31.3684 120.932 31.4503 119.664 31.4912C118.436 31.5321 117.188 31.5935 115.919 31.6753C114.691 31.7163 113.566 31.8595 112.543 32.105C111.561 32.3506 110.742 32.7803 110.088 33.3942C109.474 33.9671 109.167 34.806 109.167 35.911Z" fill="#8367F4"/>
</svg>
